<svg id="visual" viewBox="0 0 900 600" width="900" height="600" xmlns="http://www.w3.org/2000/svg" xmlns:xlink="http://www.w3.org/1999/xlink" version="1.1"><g stroke-width="1" stroke-linejoin="bevel"><path d="M499 288L489 398L564 302Z" fill="#002e5b" stroke="#002e5b"></path><path d="M489 398L589 425L564 302Z" fill="#294eb3" stroke="#294eb3"></path><path d="M499 288L362 360L489 398Z" fill="#294eb3" stroke="#294eb3"></path><path d="M391 270L362 360L499 288Z" fill="#00101c" stroke="#00101c"></path><path d="M564 302L507 186L499 288Z" fill="#002445" stroke="#002445"></path><path d="M499 288L405 185L391 270Z" fill="#294eb3" stroke="#294eb3"></path><path d="M589 425L678 314L564 302Z" fill="#003771" stroke="#003771"></path><path d="M564 302L638 206L507 186Z" fill="#715df2" stroke="#715df2"></path><path d="M678 314L638 206L564 302Z" fill="#14479d" stroke="#14479d"></path><path d="M373 503L467 530L489 398Z" fill="#14479d" stroke="#14479d"></path><path d="M489 398L566 536L589 425Z" fill="#003771" stroke="#003771"></path><path d="M467 530L566 536L489 398Z" fill="#001b30" stroke="#001b30"></path><path d="M589 425L732 388L678 314Z" fill="#002445" stroke="#002445"></path><path d="M507 186L405 185L499 288Z" fill="#3f54c9" stroke="#3f54c9"></path><path d="M265 322L309 431L362 360Z" fill="#001b30" stroke="#001b30"></path><path d="M704 506L732 388L589 425Z" fill="#002445" stroke="#002445"></path><path d="M678 314L718 200L638 206Z" fill="#3f54c9" stroke="#3f54c9"></path><path d="M362 360L373 503L489 398Z" fill="#001b30" stroke="#001b30"></path><path d="M265 322L362 360L391 270Z" fill="#001b30" stroke="#001b30"></path><path d="M362 360L309 431L373 503Z" fill="#00101c" stroke="#00101c"></path><path d="M638 206L623 138L507 186Z" fill="#00101c" stroke="#00101c"></path><path d="M507 186L411 87L405 185Z" fill="#00101c" stroke="#00101c"></path><path d="M718 200L623 138L638 206Z" fill="#14479d" stroke="#14479d"></path><path d="M623 138L531 108L507 186Z" fill="#003f87" stroke="#003f87"></path><path d="M566 536L704 506L589 425Z" fill="#002445" stroke="#002445"></path><path d="M804 261L718 200L678 314Z" fill="#003f87" stroke="#003f87"></path><path d="M309 431L305 479L373 503Z" fill="#003771" stroke="#003771"></path><path d="M328 132L317 194L405 185Z" fill="#14479d" stroke="#14479d"></path><path d="M405 185L317 194L391 270Z" fill="#294eb3" stroke="#294eb3"></path><path d="M309 431L213 476L305 479Z" fill="#002e5b" stroke="#002e5b"></path><path d="M467 530L513 600L566 536Z" fill="#5759de" stroke="#5759de"></path><path d="M566 536L637 600L704 506Z" fill="#5759de" stroke="#5759de"></path><path d="M413 600L513 600L467 530Z" fill="#14479d" stroke="#14479d"></path><path d="M413 600L467 530L373 503Z" fill="#294eb3" stroke="#294eb3"></path><path d="M317 194L265 322L391 270Z" fill="#003f87" stroke="#003f87"></path><path d="M310 600L413 600L373 503Z" fill="#002445" stroke="#002445"></path><path d="M513 600L637 600L566 536Z" fill="#294eb3" stroke="#294eb3"></path><path d="M531 108L411 87L507 186Z" fill="#5759de" stroke="#5759de"></path><path d="M411 87L328 132L405 185Z" fill="#003f87" stroke="#003f87"></path><path d="M317 194L200 230L265 322Z" fill="#003771" stroke="#003771"></path><path d="M732 388L804 261L678 314Z" fill="#001b30" stroke="#001b30"></path><path d="M819 385L804 261L732 388Z" fill="#001b30" stroke="#001b30"></path><path d="M793 489L732 388L704 506Z" fill="#294eb3" stroke="#294eb3"></path><path d="M793 489L819 385L732 388Z" fill="#003f87" stroke="#003f87"></path><path d="M834 192L710 109L718 200Z" fill="#294eb3" stroke="#294eb3"></path><path d="M718 200L710 109L623 138Z" fill="#003771" stroke="#003771"></path><path d="M639 0L472 0L531 108Z" fill="#002e5b" stroke="#002e5b"></path><path d="M531 108L472 0L411 87Z" fill="#002e5b" stroke="#002e5b"></path><path d="M265 322L220 390L309 431Z" fill="#002e5b" stroke="#002e5b"></path><path d="M305 479L310 600L373 503Z" fill="#294eb3" stroke="#294eb3"></path><path d="M175 316L220 390L265 322Z" fill="#14479d" stroke="#14479d"></path><path d="M722 600L793 489L704 506Z" fill="#3f54c9" stroke="#3f54c9"></path><path d="M637 600L722 600L704 506Z" fill="#002e5b" stroke="#002e5b"></path><path d="M233 600L310 600L305 479Z" fill="#002445" stroke="#002445"></path><path d="M220 390L213 476L309 431Z" fill="#5759de" stroke="#5759de"></path><path d="M225 62L200 230L317 194Z" fill="#294eb3" stroke="#294eb3"></path><path d="M220 390L127 462L213 476Z" fill="#3f54c9" stroke="#3f54c9"></path><path d="M200 230L175 316L265 322Z" fill="#003771" stroke="#003771"></path><path d="M411 87L306 0L328 132Z" fill="#294eb3" stroke="#294eb3"></path><path d="M328 132L225 62L317 194Z" fill="#715df2" stroke="#715df2"></path><path d="M639 0L531 108L623 138Z" fill="#3f54c9" stroke="#3f54c9"></path><path d="M804 261L834 192L718 200Z" fill="#14479d" stroke="#14479d"></path><path d="M900 227L834 192L804 261Z" fill="#002e5b" stroke="#002e5b"></path><path d="M678 0L639 0L710 109Z" fill="#003f87" stroke="#003f87"></path><path d="M710 109L639 0L623 138Z" fill="#002445" stroke="#002445"></path><path d="M472 0L398 0L411 87Z" fill="#001b30" stroke="#001b30"></path><path d="M834 192L775 73L710 109Z" fill="#003f87" stroke="#003f87"></path><path d="M900 387L900 339L819 385Z" fill="#002445" stroke="#002445"></path><path d="M819 385L900 339L804 261Z" fill="#14479d" stroke="#14479d"></path><path d="M900 387L819 385L900 468Z" fill="#5759de" stroke="#5759de"></path><path d="M775 73L678 0L710 109Z" fill="#5759de" stroke="#5759de"></path><path d="M900 468L819 385L793 489Z" fill="#001b30" stroke="#001b30"></path><path d="M213 476L233 600L305 479Z" fill="#001b30" stroke="#001b30"></path><path d="M104 600L233 600L213 476Z" fill="#00101c" stroke="#00101c"></path><path d="M722 600L814 600L793 489Z" fill="#294eb3" stroke="#294eb3"></path><path d="M834 192L900 94L775 73Z" fill="#294eb3" stroke="#294eb3"></path><path d="M900 339L900 227L804 261Z" fill="#00101c" stroke="#00101c"></path><path d="M900 600L900 468L793 489Z" fill="#003771" stroke="#003771"></path><path d="M115 327L116 363L175 316Z" fill="#003771" stroke="#003771"></path><path d="M175 316L116 363L220 390Z" fill="#002445" stroke="#002445"></path><path d="M125 238L175 316L200 230Z" fill="#294eb3" stroke="#294eb3"></path><path d="M125 238L115 327L175 316Z" fill="#3f54c9" stroke="#3f54c9"></path><path d="M398 0L306 0L411 87Z" fill="#003f87" stroke="#003f87"></path><path d="M306 0L225 62L328 132Z" fill="#003f87" stroke="#003f87"></path><path d="M101 129L125 238L200 230Z" fill="#14479d" stroke="#14479d"></path><path d="M116 363L127 462L220 390Z" fill="#5759de" stroke="#5759de"></path><path d="M900 0L765 0L775 73Z" fill="#002445" stroke="#002445"></path><path d="M775 73L765 0L678 0Z" fill="#00101c" stroke="#00101c"></path><path d="M900 227L900 94L834 192Z" fill="#003771" stroke="#003771"></path><path d="M814 600L900 600L793 489Z" fill="#3f54c9" stroke="#3f54c9"></path><path d="M306 0L213 0L225 62Z" fill="#003771" stroke="#003771"></path><path d="M225 62L101 129L200 230Z" fill="#002445" stroke="#002445"></path><path d="M99 0L101 129L225 62Z" fill="#002445" stroke="#002445"></path><path d="M125 238L0 273L115 327Z" fill="#715df2" stroke="#715df2"></path><path d="M0 424L127 462L116 363Z" fill="#294eb3" stroke="#294eb3"></path><path d="M0 273L116 363L115 327Z" fill="#003771" stroke="#003771"></path><path d="M0 511L104 600L127 462Z" fill="#002445" stroke="#002445"></path><path d="M127 462L104 600L213 476Z" fill="#294eb3" stroke="#294eb3"></path><path d="M900 94L900 0L775 73Z" fill="#001b30" stroke="#001b30"></path><path d="M0 211L0 273L125 238Z" fill="#002445" stroke="#002445"></path><path d="M0 273L0 424L116 363Z" fill="#3f54c9" stroke="#3f54c9"></path><path d="M101 129L0 211L125 238Z" fill="#14479d" stroke="#14479d"></path><path d="M0 88L0 211L101 129Z" fill="#003771" stroke="#003771"></path><path d="M213 0L99 0L225 62Z" fill="#003f87" stroke="#003f87"></path><path d="M0 424L0 511L127 462Z" fill="#003771" stroke="#003771"></path><path d="M0 511L0 600L104 600Z" fill="#5759de" stroke="#5759de"></path><path d="M99 0L0 88L101 129Z" fill="#002e5b" stroke="#002e5b"></path><path d="M99 0L0 0L0 88Z" fill="#5759de" stroke="#5759de"></path></g></svg>